<svg height="511pt" viewBox="-16 1 511 511.999" width="511pt" xmlns="http://www.w3.org/2000/svg"><path d="m472.683594 497h-50.792969c-17.402344-20.640625-43.425781-35.207031-73.40625-41.679688v-68.070312c0-4.144531-3.359375-7.5-7.5-7.5-4.144531 0-7.5 3.355469-7.5 7.5v65.554688c-6.800781-.824219-13.75-1.246094-20.804687-1.246094-9.042969 0-18.066407.71875-26.902344 2.136718-5.722656-12.710937-14.417969-23.921874-25.40625-32.691406-3.238282-2.582031-7.957032-2.050781-10.539063 1.1875-2.582031 3.234375-2.054687 7.957032 1.183594 10.539063 10.503906 8.378906 18.480469 19.445312 23.066406 31.996093 1.269531 3.476563 4.886719 5.511719 8.511719 4.78125 9.808594-1.957031 19.929688-2.949218 30.085938-2.949218 34.214843 0 66.519531 11.386718 88.222656 30.441406h-331.039063c-.003906-.160156-.003906-.320312-.003906-.484375 0-23.199219 18.875-42.070313 42.074219-42.070313 6.703125 0 13.144531 1.546876 19.136718 4.605469 3.660157 1.867188 8.136719.441407 10.046876-3.191406 7.121093-13.546875 18.070312-24.203125 31.128906-30.929687.308594-.128907.609375-.28125.898437-.453126 9.898438-4.925781 20.972657-7.613281 32.480469-7.613281 7.289062 0 14.484375 1.070313 21.382812 3.1875 3.960938 1.214844 8.15625-1.015625 9.371094-4.972656 1.214844-3.960937-1.011718-8.15625-4.972656-9.371094-8.324219-2.550781-17-3.84375-25.78125-3.84375-9.984375 0-19.691406 1.675781-28.800781 4.828125v-78.230468c0-4.144532-3.359375-7.5-7.5-7.5h-21.171875c-4.558594 0-8.839844-2.230469-11.453125-5.96875l-15.210938-21.75c-2.371093-3.394532-7.046875-4.222657-10.441406-1.847657-3.394531 2.371094-4.222656 7.046875-1.847656 10.441407l15.207031 21.75c5.417969 7.75 14.292969 12.375 23.746094 12.375h13.671875v77.5625c-12.230469 7.03125-22.746094 17.011718-30.496094 29.308593-6.203125-2.253906-12.699219-3.390625-19.394531-3.390625-31.472656 0-57.074219 25.605469-57.074219 57.074219 0 .160156 0 .320313.003906.484375h-46.863281c-4.140625 0-7.5 3.355469-7.5 7.5 0 4.140625 3.359375 7.5 7.5 7.5h464.683594c4.144531 0 7.5-3.359375 7.5-7.5 0-4.144531-3.355469-7.5-7.5-7.5zm0 0"/><path d="m275.28125 337.347656v44.433594c0 4.140625 3.355469 7.5 7.5 7.5 4.140625 0 7.5-3.359375 7.5-7.5v-44.433594c0-4.144531-3.359375-7.5-7.5-7.5-4.144531 0-7.5 3.355469-7.5 7.5zm0 0"/><path d="m242 346.328125c-4.140625 0-7.5 3.355469-7.5 7.5v27.949219c0 4.144531 3.359375 7.5 7.5 7.5 4.144531 0 7.5-3.355469 7.5-7.5v-27.949219c0-4.140625-3.355469-7.5-7.5-7.5zm0 0"/><path d="m44.125 208.765625c.027344.046875.058594.09375.085938.140625.023437.039062.046874.074219.070312.113281.007812.011719.015625.023438.023438.035157.183593.292968.378906.585937.582031.875l14.738281 21.066406c.003906.007812.007812.011718.015625.019531l31.554687 45.101563c2.375 3.394531 7.050782 4.21875 10.445313 1.847656 3.394531-2.375 4.222656-7.050782 1.847656-10.445313l-27.71875-39.613281 6.933594-6.078125c7.714844-6.761719 9.230469-18.289063 3.523437-26.816406l-8.871093-13.25c4.445312-1.066407 9.101562-1.21875 13.734375-.398438 8.863281 1.566407 16.585937 6.488281 21.742187 13.863281l28.191407 40.292969.003906.003907c.082031.117187.171875.234374.261718.347656.011719.015625.023438.03125.039063.050781.027344.035156.058594.070313.085937.109375.019532.019531.039063.039062.054688.0625.027344.03125.054688.0625.082031.09375.019531.023438.039063.042969.054688.0625.035156.035156.070312.074219.101562.109375.03125.03125.0625.0625.089844.09375l.082031.082031c.023438.023438.046875.046875.074219.070313.023437.023437.046875.046875.074219.070312.023437.023438.046875.046875.070312.070313.03125.027344.058594.050781.085938.074218.023437.019532.042968.039063.0625.058594.050781.042969.101562.085938.15625.128906.003906.003907.003906.003907.007812.007813.050782.042969.101563.082031.15625.125.011719.007813.019532.015625.03125.023437.046875.039063.097656.074219.144532.109376.007812.007812.015624.011718.023437.015624 1.0625.773438 2.332031 1.269532 3.707031 1.398438h.023438c.0625.003906.125.011719.1875.015625h.046875c.054687.003906.109375.007813.167969.011719h.050781c.074219.003906.144531.003906.214843.003906h40.03125c26.082032 0 47.300782 21.21875 47.300782 47.296875v9.808594c0 4.144531 3.359375 7.5 7.5 7.5 4.144531 0 7.5-3.355469 7.5-7.5v-9.808594c0-34.351563-27.949219-62.296875-62.300782-62.296875h-16.492187l-.203125-118.863281h32.097656v71.882812c0 9.664063 7.863282 17.527344 17.527344 17.527344s17.527344-7.863281 17.527344-17.527344v-145.683593c0-8.851563 7.199218-16.054688 16.050781-16.054688 8.855469 0 16.054687 7.203125 16.054687 16.054688v145.683593c0 9.664063 7.863282 17.527344 17.527344 17.527344 9.667969 0 17.527344-7.863281 17.527344-17.527344v-108.871093c0-8.851563 7.203125-16.050782 16.054688-16.050782 8.851562 0 16.054687 7.199219 16.054687 16.050782v112.058593c0 7.90625 6.433594 14.339844 14.339844 14.339844 5.992187 0 11.402343-3.78125 13.464843-9.40625.054688-.148437.105469-.300781.152344-.457031l19.402344-65.664063c2.464844-6.398437 9.648438-9.675781 16.109375-7.304687 6.535156 2.394531 9.902344 9.65625 7.507813 16.1875-.03125.089844-.0625.179687-.09375.269531l-35.574219 109.847656c-.242188.746094-.367188 1.527344-.367188 2.3125v57.425781c0 12.949219-10.53125 23.480469-23.480469 23.480469h-7.402343c-4.140625 0-7.5 3.359375-7.5 7.5v28.792969c0 4.144531 3.359375 7.5 7.5 7.5 4.144531 0 7.5-3.355469 7.5-7.5v-21.292969c21.175781-.050781 38.386719-17.296875 38.386719-38.480469v-56.242187l35.167968-108.59375c5.140625-14.261719-2.230468-30.066406-16.480468-35.289063-14.292969-5.242187-30.191407 2.128907-35.433594 16.425782-.054688.152344-.105469.304687-.148438.457031l-18.050781 61.082031v-107.449218c0-17.121094-13.929687-31.050782-31.054687-31.050782-17.121094 0-31.050782 13.929688-31.050782 31.050782v108.871093c0 1.394531-1.136718 2.527344-2.527344 2.527344-1.394531 0-2.527343-1.136719-2.527343-2.527344v-145.683593c.003906-17.125-13.929688-31.054688-31.050781-31.054688-17.125 0-31.054688 13.929688-31.054688 31.054688v145.683593c0 1.394531-1.132812 2.527344-2.527344 2.527344-1.394531 0-2.527344-1.132813-2.527344-2.527344v-72.558593c0-7.746094-6.179687-14.074219-13.867187-14.316407v-21.261719c8.753906-3.042968 15.058594-11.378906 15.058594-21.160156 0-12.339844-10.039063-22.382812-22.378907-22.382812-3.449218 0-6.820312.796875-9.867187 2.296875-3.042969-1.5-6.414063-2.296875-9.863281-2.296875-12.339844 0-22.382813 10.042968-22.382813 22.382812 0 9.78125 6.304688 18.117188 15.0625 21.160156v21.261719c-3.65625.117188-7.074219 1.597657-9.671875 4.195313-2.707031 2.710937-4.191406 6.3125-4.1875 10.144531l.203125 119.515625h-4.628906l-25.953125-37.09375c-7.457031-10.65625-18.617188-17.769531-31.425781-20.035156-12.476563-2.203125-25.054688.453125-35.546875 7.480468-.285156.1875-.566406.378907-.84375.574219l-7.0625 4.941407c-.074219.050781-.148438.105468-.222656.15625-.023438.019531-.050782.039062-.074219.054687-.050781.039063-.105469.078125-.15625.117187-.003907 0-.007813.003907-.011719.007813-4.511719 3.332031-7.519531 8.183594-8.5 13.726563-.929688 5.265624.074219 10.574218 2.828125 15.097656.007813.003906.011719.011718.015625.019531zm125.175781-161.324219c0-4.070312 3.3125-7.382812 7.382813-7.382812 1.796875 0 3.53125.660156 4.875 1.855468 2.839844 2.523438 7.113281 2.527344 9.957031.007813.960937-.851563 2.589844-1.863281 4.898437-1.863281 4.066407 0 7.378907 3.3125 7.378907 7.382812 0 4.019532-3.226563 7.300782-7.222657 7.386719-.121093-.003906-.238281-.007813-.335937-.007813-4.144531 0-7.5 3.355469-7.5 7.5v27.535157h-4.371094v-27.535157c0-4.257812-3.546875-7.671874-7.851562-7.492187-3.992188-.089844-7.210938-3.371094-7.210938-7.386719zm-112.125 153.886719c-.058593-.082031-.113281-.164063-.167969-.25-.007812-.011719-.011718-.019531-.019531-.03125-.011719-.019531-.023437-.035156-.035156-.054687-.019531-.03125-.039063-.066407-.058594-.097657 0-.003906-.003906-.003906-.003906-.007812-1.691406-2.867188-1.042969-6.566407 1.523437-8.683594.007813-.003906.011719-.007813.019532-.015625.027344-.023438.054687-.042969.082031-.066406.019531-.011719.039063-.027344.054687-.042969.011719-.007813.019532-.015625.03125-.023437.082032-.058594.160157-.121094.246094-.175782l4.921875-3.445312 9.992188 14.925781c1.53125 2.285156 1.125 5.378906-.945313 7.191406l-5.699218 4.992188zm0 0"/></svg>